<svg width="40" height="52" viewBox="0 0 40 52" fill="none" xmlns="http://www.w3.org/2000/svg">
<g filter="url(#filter0_d_709_582)">
<mask id="path-1-inside-1_709_582" fill="white">
<path fill-rule="evenodd" clip-rule="evenodd" d="M21.8084 42.524C25.9953 36.6782 36 22.0094 36 15.3191C36 6.85862 28.8366 0 20 0C11.1634 0 4 6.85862 4 15.3191C4 22.0094 14.0047 36.6782 18.1916 42.524C19.0892 43.7773 20.9108 43.7773 21.8084 42.524ZM20 22.9787C24.4183 22.9787 28 19.5494 28 15.3192C28 11.0889 24.4183 7.65959 20 7.65959C15.5817 7.65959 12 11.0889 12 15.3192C12 19.5494 15.5817 22.9787 20 22.9787Z"/>
</mask>
<path fill-rule="evenodd" clip-rule="evenodd" d="M21.8084 42.524C25.9953 36.6782 36 22.0094 36 15.3191C36 6.85862 28.8366 0 20 0C11.1634 0 4 6.85862 4 15.3191C4 22.0094 14.0047 36.6782 18.1916 42.524C19.0892 43.7773 20.9108 43.7773 21.8084 42.524ZM20 22.9787C24.4183 22.9787 28 19.5494 28 15.3192C28 11.0889 24.4183 7.65959 20 7.65959C15.5817 7.65959 12 11.0889 12 15.3192C12 19.5494 15.5817 22.9787 20 22.9787Z" fill="#4263EB"/>
<path d="M21.8084 42.524L23.6945 43.8748L23.6945 43.8748L21.8084 42.524ZM18.1916 42.524L20.0776 41.1732L20.0776 41.1732L18.1916 42.524ZM33.6801 15.3191C33.6801 16.5158 33.2056 18.3371 32.23 20.6778C31.2797 22.958 29.9515 25.5062 28.4657 28.0775C25.4962 33.2164 21.9983 38.2749 19.9224 41.1732L23.6945 43.8748C25.8055 40.9273 29.4033 35.7284 32.4829 30.3989C34.0217 27.736 35.4563 24.9973 36.5127 22.4627C37.5438 19.9888 38.3199 17.4676 38.3199 15.3191H33.6801ZM20 2.31985C27.6514 2.31985 33.6801 8.23387 33.6801 15.3191H38.3199C38.3199 5.48336 30.0217 -2.31985 20 -2.31985V2.31985ZM6.31985 15.3191C6.31985 8.23387 12.3486 2.31985 20 2.31985V-2.31985C9.97833 -2.31985 1.68015 5.48336 1.68015 15.3191H6.31985ZM20.0776 41.1732C18.0017 38.2749 14.5038 33.2164 11.5343 28.0776C10.0485 25.5062 8.72031 22.958 7.76996 20.6778C6.79437 18.3371 6.31985 16.5158 6.31985 15.3191H1.68015C1.68015 17.4676 2.45622 19.9888 3.48734 22.4627C4.54371 24.9973 5.97835 27.736 7.51708 30.3989C10.5967 35.7284 14.1945 40.9273 16.3055 43.8748L20.0776 41.1732ZM19.9224 41.1732C19.9177 41.1798 19.9253 41.1682 19.9472 41.1571C19.9657 41.1478 19.984 41.1442 20 41.1442C20.016 41.1442 20.0343 41.1478 20.0528 41.1571C20.0747 41.1682 20.0823 41.1798 20.0776 41.1732L16.3055 43.8748C18.1286 46.4202 21.8714 46.4202 23.6945 43.8748L19.9224 41.1732ZM25.6801 15.3192C25.6801 18.1742 23.2331 20.6589 20 20.6589V25.2986C25.6034 25.2986 30.3198 20.9247 30.3198 15.3192H25.6801ZM20 9.97944C23.2331 9.97944 25.6801 12.4642 25.6801 15.3192H30.3198C30.3198 9.71364 25.6034 5.33974 20 5.33974V9.97944ZM14.3198 15.3192C14.3198 12.4642 16.7668 9.97944 20 9.97944V5.33974C14.3966 5.33974 9.68013 9.71364 9.68013 15.3192H14.3198ZM20 20.6589C16.7668 20.6589 14.3198 18.1742 14.3198 15.3192H9.68013C9.68013 20.9247 14.3966 25.2986 20 25.2986V20.6589Z" fill="white" mask="url(#path-1-inside-1_709_582)"/>
</g>
<defs>
<filter id="filter0_d_709_582" x="0" y="0" width="40" height="53" filterUnits="userSpaceOnUse" color-interpolation-filters="sRGB">
<feFlood flood-opacity="0" result="BackgroundImageFix"/>
<feColorMatrix in="SourceAlpha" type="matrix" values="0 0 0 0 0 0 0 0 0 0 0 0 0 0 0 0 0 0 127 0" result="hardAlpha"/>
<feOffset dy="4"/>
<feGaussianBlur stdDeviation="2"/>
<feComposite in2="hardAlpha" operator="out"/>
<feColorMatrix type="matrix" values="0 0 0 0 0 0 0 0 0 0 0 0 0 0 0 0 0 0 0.25 0"/>
<feBlend mode="normal" in2="BackgroundImageFix" result="effect1_dropShadow_709_582"/>
<feBlend mode="normal" in="SourceGraphic" in2="effect1_dropShadow_709_582" result="shape"/>
</filter>
</defs>
</svg>
